<svg xmlns="http://www.w3.org/2000/svg" viewBox="150 150 300 300" width="100%" height="100%">
  <defs>
    <radialGradient id="bg" cx="50%" cy="50%" r="75%">
      <stop offset="0%" stop-color="#141824" />
      <stop offset="100%" stop-color="#090C13" />
    </radialGradient>

    <linearGradient id="t-top" x1="0%" y1="0%" x2="100%" y2="100%"><stop offset="0%" stop-color="#B2FFFF"/><stop offset="100%" stop-color="#00E5FF"/></linearGradient>
    <linearGradient id="t-left" x1="0%" y1="0%" x2="0%" y2="100%"><stop offset="0%" stop-color="#00CBE2"/><stop offset="100%" stop-color="#008396"/></linearGradient>
    <linearGradient id="t-right" x1="0%" y1="0%" x2="100%" y2="100%"><stop offset="0%" stop-color="#00E5FF"/><stop offset="100%" stop-color="#005B6B"/></linearGradient>

    <linearGradient id="m-top" x1="0%" y1="0%" x2="100%" y2="100%"><stop offset="0%" stop-color="#D4C4FF"/><stop offset="100%" stop-color="#9975FF"/></linearGradient>
    <linearGradient id="m-left" x1="0%" y1="0%" x2="0%" y2="100%"><stop offset="0%" stop-color="#8052FF"/><stop offset="100%" stop-color="#552BC6"/></linearGradient>
    <linearGradient id="m-right" x1="0%" y1="0%" x2="100%" y2="100%"><stop offset="0%" stop-color="#9975FF"/><stop offset="100%" stop-color="#3D1A9E"/></linearGradient>

    <linearGradient id="v-top" x1="0%" y1="0%" x2="100%" y2="100%"><stop offset="0%" stop-color="#E7DBFF"/><stop offset="100%" stop-color="#7C4DFF"/></linearGradient>
    <linearGradient id="v-left" x1="0%" y1="0%" x2="0%" y2="100%"><stop offset="0%" stop-color="#6430FF"/><stop offset="100%" stop-color="#4213CC"/></linearGradient>
    <linearGradient id="v-right" x1="0%" y1="0%" x2="100%" y2="100%"><stop offset="0%" stop-color="#7C4DFF"/><stop offset="100%" stop-color="#2D069E"/></linearGradient>
  </defs>

  <rect x="150" y="150" width="300" height="300" rx="54" fill="url(#bg)" />

  <g transform="translate(300, 270)">
    <g>
      <polygon points="0.0,-101.2 39.8,-78.2 0.0,-55.2 -39.8,-78.2" fill="url(#v-top)" />
      <polygon points="-39.8,-78.2 0.0,-55.2 0.0,-9.2 -39.8,-32.2" fill="url(#v-left)" />
      <polygon points="0.0,-55.2 39.8,-78.2 39.8,-32.2 0.0,-9.2" fill="url(#v-right)" />
    </g>
    <g>
      <polygon points="39.8,-39.1 79.7,-16.1 39.8,6.9 0.0,-16.1" fill="url(#m-top)" />
      <polygon points="0.0,-16.1 39.8,6.9 39.8,52.9 0.0,29.9" fill="url(#m-left)" />
      <polygon points="39.8,6.9 79.7,-16.1 79.7,29.9 39.8,52.9" fill="url(#m-right)" />
    </g>
    <g>
      <polygon points="-39.8,-39.1 0.0,-16.1 -39.8,6.9 -79.7,-16.1" fill="url(#m-top)" />
      <polygon points="-79.7,-16.1 -39.8,6.9 -39.8,52.9 -79.7,29.9" fill="url(#m-left)" />
      <polygon points="-39.8,6.9 0.0,-16.1 0.0,29.9 -39.8,52.9" fill="url(#m-right)" />
    </g>
    <g>
      <polygon points="79.7,23.0 119.5,46.0 79.7,69.0 39.8,46.0" fill="url(#t-top)" />
      <polygon points="39.8,46.0 79.7,69.0 79.7,115.0 39.8,92.0" fill="url(#t-left)" />
      <polygon points="79.7,69.0 119.5,46.0 119.5,92.0 79.7,115.0" fill="url(#t-right)" />
    </g>
    <g>
      <polygon points="-79.7,23.0 -39.8,46.0 -79.7,69.0 -119.5,46.0" fill="url(#t-top)" />
      <polygon points="-119.5,46.0 -79.7,69.0 -79.7,115.0 -119.5,92.0" fill="url(#t-left)" />
      <polygon points="-79.7,69.0 -39.8,46.0 -39.8,92.0 -79.7,115.0" fill="url(#t-right)" />
    </g>
    <g>
      <polygon points="0.0,-16.1 39.8,6.9 0.0,29.9 -39.8,6.9" fill="url(#m-top)" />
      <polygon points="-39.8,6.9 0.0,29.9 0.0,75.9 -39.8,52.9" fill="url(#m-left)" />
      <polygon points="0.0,29.9 39.8,6.9 39.8,52.9 0.0,75.9" fill="url(#m-right)" />
    </g>
    <g>
      <polygon points="39.8,46.0 79.7,69.0 39.8,92.0 0.0,69.0" fill="url(#t-top)" />
      <polygon points="0.0,69.0 39.8,92.0 39.8,138.0 0.0,115.0" fill="url(#t-left)" />
      <polygon points="39.8,92.0 79.7,69.0 79.7,115.0 39.8,138.0" fill="url(#t-right)" />
    </g>
    <g>
      <polygon points="-39.8,46.0 0.0,69.0 -39.8,92.0 -79.7,69.0" fill="url(#t-top)" />
      <polygon points="-79.7,69.0 -39.8,92.0 -39.8,138.0 -79.7,115.0" fill="url(#t-left)" />
      <polygon points="-39.8,92.0 0.0,69.0 0.0,115.0 -39.8,138.0" fill="url(#t-right)" />
    </g>
    <g>
      <polygon points="0.0,69.0 39.8,92.0 0.0,115.0 -39.8,92.0" fill="url(#t-top)" />
      <polygon points="-39.8,92.0 0.0,115.0 0.0,161.0 -39.8,138.0" fill="url(#t-left)" />
      <polygon points="0.0,115.0 39.8,92.0 39.8,138.0 0.0,161.0" fill="url(#t-right)" />
    </g>
  </g>
</svg>
